<svg xmlns="http://www.w3.org/2000/svg" viewBox="0 0 441.69 623.25"><defs><style>.cls-1{fill:#282828;}.cls-2{fill:#e6e6e6;}</style></defs><g id="레이어_2" data-name="레이어 2"><g id="레이어_1-2" data-name="레이어 1"><rect class="cls-1" width="441.69" height="623.25"/><path class="cls-2" d="M76.15,298.78a10.4,10.4,0,0,1,3.33,6.14,1.39,1.39,0,0,1-.24,1,1.25,1.25,0,0,1-.8.52,1,1,0,0,1-.88-.16,1.46,1.46,0,0,1-.6-1A8,8,0,0,0,73.75,300,9.84,9.84,0,0,0,68,298.41a9.33,9.33,0,0,0-7.43,3.34q-3,3.57-3,9.87,0,6.45,3,9.95A9.29,9.29,0,0,0,68,324.82a9.37,9.37,0,0,0,5.74-1.65,9.79,9.79,0,0,0,3.37-6,1.29,1.29,0,0,1,.6-.92,1.32,1.32,0,0,1,1-.12,1.24,1.24,0,0,1,.84.56,1.48,1.48,0,0,1,.16,1.21,12.15,12.15,0,0,1-3.53,6.34,11.55,11.55,0,0,1-8.14,2.8,11.52,11.52,0,0,1-9.27-4.13q-3.62-4.17-3.61-11.31t3.61-11.24A11.49,11.49,0,0,1,68,296.17,12.15,12.15,0,0,1,76.15,298.78Z"/><path class="cls-2" d="M108.05,300.9a17.19,17.19,0,0,1,3.21,10.72,17,17,0,0,1-3.21,10.67,12,12,0,0,1-10.19,4.77q-6.61,0-10.23-4.77a17.28,17.28,0,0,1-3.13-10.67,17.47,17.47,0,0,1,3.13-10.72q3.62-4.72,10.23-4.73T108.05,300.9Zm-18.53,1.45Q87,305.83,87,311.62a15.52,15.52,0,0,0,2.53,9.26,9.61,9.61,0,0,0,8.34,4,9.7,9.7,0,0,0,8.35-4,18,18,0,0,0,0-18.53,9.7,9.7,0,0,0-8.35-4A9.61,9.61,0,0,0,89.52,302.35Z"/><path class="cls-2" d="M118,296.73a2,2,0,0,1,1.25-.56,2.31,2.31,0,0,1,1.36.32,2.06,2.06,0,0,1,.88,1.08l.89,2.57,7.94,23.23,8-23.31.8-2.37a2,2,0,0,1,2.25-1.48,1.75,1.75,0,0,1,1.2.52,1.81,1.81,0,0,1,.56,1.4v27.65a1.22,1.22,0,0,1-.4,1,1.37,1.37,0,0,1-1.76,0,1.27,1.27,0,0,1-.37-1V300.3l-8.54,25.28c-.43,1-1,1.48-1.81,1.48s-1.34-.49-1.76-1.48L120,300.3v25.48a1.22,1.22,0,0,1-.4,1,1.19,1.19,0,0,1-.84.32,1.27,1.27,0,0,1-.89-.32,1.3,1.3,0,0,1-.36-1V298.13A1.93,1.93,0,0,1,118,296.73Z"/><path class="cls-2" d="M151.75,296.49a1.24,1.24,0,0,1,.88-.32,1.19,1.19,0,0,1,.84.32,1.27,1.27,0,0,1,.41,1v28.29a1.22,1.22,0,0,1-.41,1,1.19,1.19,0,0,1-.84.32,1.24,1.24,0,0,1-.88-.32,1.3,1.3,0,0,1-.36-1V297.49A1.35,1.35,0,0,1,151.75,296.49Z"/><path class="cls-2" d="M163.18,296.17A1.75,1.75,0,0,1,165,297l1.36,2,14.09,23.43v-25.2a1.06,1.06,0,0,1,.36-.84,1.54,1.54,0,0,1,.88-.24,1.41,1.41,0,0,1,.89.28.93.93,0,0,1,.4.8v28.09a1.46,1.46,0,0,1-1.09,1.64,1.2,1.2,0,0,1-1.56-.52l-2.25-3.29-13.6-22.43v24.92a1.48,1.48,0,0,1-.4,1.08,1.21,1.21,0,0,1-.89.36,1.33,1.33,0,0,1-.88-.4,1.48,1.48,0,0,1-.36-1V297.77A1.4,1.4,0,0,1,163.18,296.17Z"/><path class="cls-2" d="M211.58,298.74a9.72,9.72,0,0,1,3.41,5.53,1.38,1.38,0,0,1-.2,1.09,1.45,1.45,0,0,1-1.85.28,1.1,1.1,0,0,1-.6-.89,7.22,7.22,0,0,0-3.13-4.77,11.63,11.63,0,0,0-6.34-1.57,10,10,0,0,0-8,3.34q-3,3.48-3,9.87,0,6.54,3,9.95a10,10,0,0,0,8,3.25,9.78,9.78,0,0,0,7-2.49q3.14-3,3.13-9.07H204a1.13,1.13,0,0,1,0-2.25h9.63a1.67,1.67,0,0,1,1.33.57,1.8,1.8,0,0,1,.48,1.28V325.3a1.25,1.25,0,0,1-.4,1,1.22,1.22,0,0,1-.85.32,1.26,1.26,0,0,1-.88-.32,1.3,1.3,0,0,1-.36-1v-3.85a9.19,9.19,0,0,1-3.85,4.13A13.84,13.84,0,0,1,193,322.93c-2.44-2.75-3.65-6.53-3.65-11.31s1.21-8.43,3.65-11.24a12.42,12.42,0,0,1,9.83-4.21C206.51,296.17,209.41,297,211.58,298.74Z"/><path class="cls-2" d="M252.34,298.58a8.3,8.3,0,0,1,2.33,4.77,1.58,1.58,0,0,1-.24,1.24,1.16,1.16,0,0,1-.84.53,1.44,1.44,0,0,1-1-.29,1.35,1.35,0,0,1-.52-1,6.32,6.32,0,0,0-2.21-4.17,8,8,0,0,0-4.85-1.29,9.71,9.71,0,0,0-5.3,1.25,4.27,4.27,0,0,0-2,3.81,4.77,4.77,0,0,0,1.6,3.85c1.13,1,3.14,1.74,6.06,2.33q5.74,1.17,8.11,3.33a7.64,7.64,0,0,1,2.28,5.94,7,7,0,0,1-3.13,6,11.88,11.88,0,0,1-7.26,2.12q-4.94,0-7.58-2.08-2.9-2.21-3.29-6.86a1.17,1.17,0,0,1,.32-1.05,1.26,1.26,0,0,1,.8-.36,1.17,1.17,0,0,1,.88.28A1.57,1.57,0,0,1,237,318a6.83,6.83,0,0,0,2.49,5.25,9.36,9.36,0,0,0,5.82,1.53,10.09,10.09,0,0,0,5.18-1.33,4.77,4.77,0,0,0,2.77-4.29,5.86,5.86,0,0,0-1.45-4.37q-1.72-1.69-6.86-2.85a20.06,20.06,0,0,1-7.14-2.81,6.68,6.68,0,0,1-2.61-5.62,6.41,6.41,0,0,1,2.65-5.46,12.49,12.49,0,0,1,7.38-1.92Q249.85,296.17,252.34,298.58Z"/><path class="cls-2" d="M284.16,300.9a17.19,17.19,0,0,1,3.21,10.72,17,17,0,0,1-3.21,10.67A12,12,0,0,1,274,327.06q-6.62,0-10.23-4.77a17.28,17.28,0,0,1-3.13-10.67,17.47,17.47,0,0,1,3.13-10.72q3.61-4.72,10.23-4.73A12.08,12.08,0,0,1,284.16,300.9Zm-18.54,1.45q-2.52,3.48-2.52,9.27a15.59,15.59,0,0,0,2.52,9.26,10.75,10.75,0,0,0,16.7,0,18,18,0,0,0,0-18.53,10.75,10.75,0,0,0-16.7,0Z"/><path class="cls-2" d="M315.78,300.9A17.19,17.19,0,0,1,319,311.62a17,17,0,0,1-3.21,10.67,12,12,0,0,1-10.19,4.77q-6.63,0-10.23-4.77a17.28,17.28,0,0,1-3.13-10.67,17.47,17.47,0,0,1,3.13-10.72q3.6-4.72,10.23-4.73A12.08,12.08,0,0,1,315.78,300.9Zm-18.54,1.45c-1.68,2.32-2.53,5.41-2.53,9.27a15.59,15.59,0,0,0,2.53,9.26,10.74,10.74,0,0,0,16.69,0,15.44,15.44,0,0,0,2.57-9.26c0-3.83-.85-6.92-2.57-9.27a10.74,10.74,0,0,0-16.69,0Z"/><path class="cls-2" d="M326.45,296.17a1.75,1.75,0,0,1,1.85.84l1.36,2,14.09,23.43v-25.2a1.06,1.06,0,0,1,.36-.84,1.54,1.54,0,0,1,.88-.24,1.36,1.36,0,0,1,.88.28.91.91,0,0,1,.4.8v28.09a1.46,1.46,0,0,1-1.08,1.64,1.2,1.2,0,0,1-1.56-.52l-2.25-3.29-13.6-22.43v24.92a1.48,1.48,0,0,1-.4,1.08,1.21,1.21,0,0,1-.89.36,1.33,1.33,0,0,1-.88-.4,1.48,1.48,0,0,1-.36-1V297.77A1.4,1.4,0,0,1,326.45,296.17Z"/><path class="cls-2" d="M358.59,323.21a2.35,2.35,0,0,1,.57,1.61,2.21,2.21,0,0,1-.57,1.52,2,2,0,0,1-1.6.72,2,2,0,0,1-1.65-.72,2.37,2.37,0,0,1-.52-1.52,2.53,2.53,0,0,1,.52-1.61,2.1,2.1,0,0,1,1.65-.68A2,2,0,0,1,358.59,323.21Z"/><path class="cls-2" d="M372.32,323.21a2.39,2.39,0,0,1,.56,1.61,2.25,2.25,0,0,1-.56,1.52,2.19,2.19,0,0,1-3.25,0,2.33,2.33,0,0,1-.53-1.52,2.48,2.48,0,0,1,.53-1.61,2.28,2.28,0,0,1,3.25,0Z"/><path class="cls-2" d="M386,323.21a2.39,2.39,0,0,1,.56,1.61,2.25,2.25,0,0,1-.56,1.52,2,2,0,0,1-1.61.72,2,2,0,0,1-1.64-.72,2.32,2.32,0,0,1-.52-1.52,2.47,2.47,0,0,1,.52-1.61,2.09,2.09,0,0,1,1.64-.68A2.06,2.06,0,0,1,386,323.21Z"/></g></g></svg>