<svg xmlns="http://www.w3.org/2000/svg" width="139" height="31" viewBox="0 0 139 31">
    <g fill="#E6E6E6" fill-rule="nonzero">
        <path d="M27 26.452l-8.641-10.304c2.302-1.42 3.857-4.01 3.857-7.003C22.216 4.67 18.688 1 14.322 1H0v25.113h5.412v-8.824h7.206L23.233 30 27 26.452zM5.412 5.998h8.342c1.704 0 3.05 1.419 3.05 3.147 0 1.727-1.375 3.146-3.05 3.146H5.412V5.998zM76.5 25c-4.133 0-7.5-3.367-7.5-7.5s3.367-7.5 7.5-7.5 7.5 3.367 7.5 7.5c-.03 4.133-3.398 7.5-7.5 7.5m0-10.04a2.535 2.535 0 0 0-2.54 2.54 2.535 2.535 0 0 0 2.54 2.54 2.535 2.535 0 0 0 2.54-2.54 2.554 2.554 0 0 0-2.54-2.54M34.5 25c-4.133 0-7.5-3.367-7.5-7.5s3.367-7.5 7.5-7.5 7.5 3.367 7.5 7.5-3.367 7.5-7.5 7.5m0-10.04a2.535 2.535 0 0 0-2.54 2.54 2.535 2.535 0 0 0 2.54 2.54 2.535 2.535 0 0 0 2.54-2.54 2.535 2.535 0 0 0-2.54-2.54M62.573 10.963a7.044 7.044 0 0 0 .739-3.176C63.312 4.051 60.417 1 56.873 1H45v25h13.202C62.514 26 66 22.326 66 17.78c.03-2.863-1.36-5.354-3.427-6.817zm-12.227-4.95h5.936c.916 0 1.684.778 1.684 1.774 0 .965-.738 1.775-1.684 1.775h-5.936v-3.55zm7.295 14.943h-7.295v-6.382h7.266c1.654 0 3.012 1.432 3.012 3.176.06 1.774-1.3 3.206-2.983 3.206z"/>
        <path d="M103 1H78v5.031h9.75V26h5.5V6.031H103z"/>
        <path d="M121 27.672l-4.382-5.142a6.55 6.55 0 0 0 2.366-5.052c0-3.566-2.863-6.478-6.37-6.478H99v16.166h5.113v-3.21h7.129L117.29 31l3.71-3.328zm-16.916-11.828h8.151c.906 0 1.665.743 1.665 1.694 0 .921-.73 1.694-1.665 1.694h-8.151v-3.388zM139 3.649L135.494 0l-8.811 8.926L117.659 0 114 3.649l9.939 9.831V25h5.518V13.088z"/>
    </g>
</svg>
