<svg xmlns="http://www.w3.org/2000/svg" width="126" height="29" viewBox="0 0 126 29">
    <g fill="#9B9B9B" fill-rule="nonzero">
        <path d="M24.953 23.69l-7.933-9.168a7.242 7.242 0 0 0 3.54-6.232c0-3.98-3.238-7.247-7.246-7.247H.164v22.345h4.97v-7.85h6.615l9.745 11.31 3.459-3.158zM5.133 5.49h7.66c1.564 0 2.8 1.263 2.8 2.8s-1.264 2.8-2.8 2.8h-7.66v-5.6zM69.478 23.031c-3.705 0-6.725-3.02-6.725-6.725 0-3.706 3.02-6.726 6.725-6.726 3.706 0 6.726 3.02 6.726 6.726-.028 3.706-3.047 6.725-6.726 6.725m0-9.004a2.273 2.273 0 0 0-2.278 2.279 2.273 2.273 0 0 0 2.278 2.278 2.273 2.273 0 0 0 2.279-2.278 2.29 2.29 0 0 0-2.279-2.279M31.157 22.894c-3.706 0-6.726-3.02-6.726-6.725 0-3.706 3.02-6.726 6.726-6.726s6.725 3.02 6.725 6.726-3.02 6.725-6.725 6.725m0-9.004a2.273 2.273 0 0 0-2.279 2.279 2.273 2.273 0 0 0 2.279 2.278 2.273 2.273 0 0 0 2.278-2.278 2.273 2.273 0 0 0-2.278-2.279M56.96 10.13c.44-.824.687-1.785.687-2.8 0-3.295-2.69-5.985-5.984-5.985H40.627v22.043h12.271a7.24 7.24 0 0 0 7.247-7.247c.028-2.525-1.263-4.721-3.184-6.012zM45.597 5.764h5.518a1.564 1.564 0 1 1 0 3.13h-5.518v-3.13zm6.78 13.176h-6.78v-5.627h6.753c1.537 0 2.8 1.262 2.8 2.8.055 1.564-1.208 2.827-2.773 2.827z"/>
        <path d="M93.224.741H70.63v4.447h8.812V22.84h4.969V5.19h8.812z"/>
        <path d="M110.216 25.2l-4.118-4.749a6.012 6.012 0 0 0 2.224-4.667c0-3.294-2.69-5.984-5.985-5.984H89.545v14.933h4.804V21.77h6.698l5.682 6.506 3.487-3.075zM94.322 14.275h7.658a1.564 1.564 0 1 1 0 3.129h-7.658v-3.13zM126 3.404L122.843.082l-7.933 8.126-8.126-8.126-3.294 3.322 8.95 8.949v10.486h4.968V11.996z"/>
    </g>
</svg>
