<svg xmlns="http://www.w3.org/2000/svg" width="104" height="28" viewBox="0 0 104 28">
    <g fill="#049DCA" fill-rule="nonzero">
        <path d="M11.277 14.2l8.312-8.018H13.95L5.806 14.2l13.407 13.198h5.764l-13.7-13.198z"/>
        <path d="M33.08 5.93c-6.934 0-11.445 3.259-11.445 8.27 0 5.055 4.511 8.27 11.445 8.27 6.933 0 11.444-3.215 11.444-8.27 0-5.011-4.511-8.27-11.444-8.27zm0 13.951h-.042c-3.843 0-6.182-2.172-6.182-5.68 0-3.55 2.34-5.639 6.182-5.639h.042c3.842 0 6.181 2.089 6.181 5.639 0 3.55-2.339 5.68-6.181 5.68zM56.929 22.178h4.928V19.84h-1.921c-3.175 0-4.302-1.086-4.302-3.884V8.562h6.223v-2.38h-6.223V0h-4.97v6.182h-4.177v2.38h4.176v8.813c-.041 3.133 2.172 4.803 6.266 4.803zM94.978 6.182h-9.481v2.506h8.395c2.506.125 4.678.668 4.678 3.3v.918h-6.056c-6.056 0-8.52 1.42-8.52 4.929 0 2.798 2.339 4.385 6.473 4.385h13.241V12.07c.041-3.925-2.924-5.888-8.73-5.888zm3.676 13.574h-5.68c-1.755 0-3.718 0-3.718-2.089 0-2.297 2.089-2.464 4.135-2.464h5.263v4.553zM71.798 6.182c-4.386 0-5.806.96-5.806 3.842v12.154h4.97V10.901c0-2.213 3.3-2.213 4.803-2.213h5.806l2.631-2.506H71.798zM4.929 22.178V0H0v22.178h4.929z"/>
    </g>
</svg>
