<svg xmlns="http://www.w3.org/2000/svg" width="120" height="31" viewBox="0 0 120 31">
    <g fill="#000" fill-rule="evenodd">
        <path d="M10.166 14.19v10.566c0 1.198-.039 2.04-.117 2.524-.078.485-.31.983-.694 1.494-.384.511-.89.899-1.518 1.163-.628.263-1.369.395-2.222.395-.944 0-1.777-.156-2.5-.469-.722-.312-1.263-.72-1.62-1.22a3.381 3.381 0 0 1-.636-1.587c-.065-.557-.097-1.727-.097-3.511v-9.356h4.111v11.856c0 .69.037 1.131.112 1.323.075.192.227.288.454.288.26 0 .429-.106.503-.317.075-.212.113-.711.113-1.5V14.19h4.111zm1.592 0h4.14c1.12 0 1.981.087 2.583.263.603.176 1.055.43 1.358.762.303.332.508.734.615 1.206.108.472.161 1.203.161 2.192v1.377c0 1.01-.104 1.745-.312 2.207-.209.463-.591.817-1.148 1.065-.556.247-1.284.37-2.182.37h-1.104V30h-4.111V14.19zm4.111 2.705v4.023c.117.006.218.01.303.01.377 0 .64-.093.786-.279.146-.185.22-.57.22-1.157v-1.299c0-.54-.085-.892-.254-1.054-.17-.163-.521-.244-1.055-.244zm14.21-2.706v3.165h-2.442V30h-4.112V17.354h-2.431v-3.165h8.984zm10.331 9.258c0 1.589-.037 2.713-.112 3.374a3.78 3.78 0 0 1-.703 1.812c-.394.547-.926.967-1.597 1.26-.67.293-1.452.439-2.344.439-.846 0-1.606-.138-2.28-.415a3.75 3.75 0 0 1-1.626-1.245 3.742 3.742 0 0 1-.732-1.807c-.079-.65-.118-1.79-.118-3.418v-2.705c0-1.588.038-2.713.113-3.374a3.78 3.78 0 0 1 .703-1.811c.394-.547.926-.967 1.597-1.26.67-.293 1.451-.44 2.343-.44.847 0 1.607.139 2.28.415a3.75 3.75 0 0 1 1.627 1.246c.41.553.654 1.155.732 1.806.078.651.117 1.79.117 3.418v2.705zM36.3 18.252c0-.736-.04-1.206-.122-1.411-.082-.205-.25-.308-.503-.308a.561.561 0 0 0-.493.25c-.114.165-.171.655-.171 1.469v7.383c0 .918.037 1.484.112 1.699.075.215.25.322.523.322.28 0 .459-.123.537-.37.078-.248.117-.837.117-1.768v-7.266zm21.113-4.063L55.586 30h-5.137c-.469-2.428-.882-5.189-1.24-8.281-.163 1.321-.544 4.082-1.143 8.281H42.96l-1.836-15.81h3.994l.42 5.517.43 5.322c.15-2.754.527-6.367 1.133-10.84h4.277c.059.463.208 2.201.45 5.215l.448 6.006c.228-3.821.61-7.562 1.143-11.22h3.994zm10 0V30H63.81l-2.14-7.188V30h-3.437V14.19h3.438l2.305 7.119v-7.12h3.437zM81.3 18.975H77.48v-1.172c0-.547-.048-.895-.146-1.045-.098-.15-.26-.225-.488-.225-.248 0-.435.101-.562.303-.127.202-.19.508-.19.918 0 .527.071.924.215 1.191.136.267.524.59 1.162.967 1.83 1.087 2.981 1.98 3.457 2.676.475.697.713 1.82.713 3.369 0 1.126-.132 1.956-.396 2.49-.264.534-.773.982-1.528 1.343s-1.634.542-2.637.542c-1.1 0-2.04-.208-2.817-.625-.778-.417-1.288-.947-1.529-1.592-.24-.644-.361-1.559-.361-2.744v-1.035h3.818v1.924c0 .592.054.973.162 1.142.107.17.297.254.57.254.274 0 .478-.107.611-.322.134-.215.2-.534.2-.957 0-.931-.127-1.54-.38-1.826-.26-.287-.902-.765-1.924-1.436-1.022-.677-1.7-1.168-2.032-1.474-.332-.306-.607-.73-.825-1.27-.218-.54-.327-1.23-.327-2.07 0-1.211.155-2.097.464-2.656.31-.56.809-.998 1.499-1.314.69-.316 1.523-.474 2.5-.474 1.068 0 1.978.173 2.73.518.751.345 1.25.78 1.494 1.304s.366 1.414.366 2.67v.626zm1.63-4.786h6.856v3.165h-2.744v2.998h2.568v3.007h-2.568v3.477h3.018V30h-7.13V14.19zm17.706 9.258c0 1.589-.038 2.713-.113 3.374a3.78 3.78 0 0 1-.703 1.812c-.394.547-.926.967-1.596 1.26-.67.293-1.452.439-2.344.439-.846 0-1.607-.138-2.28-.415a3.75 3.75 0 0 1-1.626-1.245 3.742 3.742 0 0 1-.733-1.807c-.078-.65-.117-1.79-.117-3.418v-2.705c0-1.588.037-2.713.112-3.374a3.78 3.78 0 0 1 .703-1.811c.394-.547.927-.967 1.597-1.26.67-.293 1.452-.44 2.344-.44.846 0 1.606.139 2.28.415a3.75 3.75 0 0 1 1.626 1.246c.41.553.654 1.155.733 1.806.078.651.117 1.79.117 3.418v2.705zm-4.112-5.195c0-.736-.04-1.206-.122-1.411-.081-.205-.249-.308-.503-.308a.561.561 0 0 0-.493.25c-.114.165-.17.655-.17 1.469v7.383c0 .918.037 1.484.112 1.699.075.215.249.322.522.322.28 0 .46-.123.537-.37.078-.248.117-.837.117-1.768v-7.266zm14.99-4.063v10.567c0 1.198-.038 2.04-.117 2.524-.078.485-.309.983-.693 1.494-.384.511-.89.899-1.518 1.163-.629.263-1.37.395-2.222.395-.944 0-1.777-.156-2.5-.469-.723-.312-1.263-.72-1.621-1.22a3.381 3.381 0 0 1-.635-1.587c-.065-.557-.098-1.727-.098-3.511v-9.356h4.112v11.856c0 .69.037 1.131.112 1.323.075.192.226.288.454.288.26 0 .428-.106.503-.317.075-.212.112-.711.112-1.5V14.19h4.112zm5.704 0v12.647h2.5V30h-6.612V14.19h4.112zM3.016 6.104c-.363 0-.7-.068-1.012-.204a2.283 2.283 0 0 1-.812-.596 2.795 2.795 0 0 1-.536-.956 3.948 3.948 0 0 1-.192-1.276c0-.475.065-.9.196-1.276.13-.376.312-.696.544-.96.232-.264.507-.465.824-.604A2.559 2.559 0 0 1 3.064.024a2.07 2.07 0 0 1 .948.224 2.277 2.277 0 0 1 .66.504l-.4.48c-.155-.165-.33-.3-.524-.404a1.413 1.413 0 0 0-.676-.156c-.277 0-.53.055-.756.164-.227.11-.421.267-.584.472a2.216 2.216 0 0 0-.376.748 3.45 3.45 0 0 0-.132.992c0 .368.043.701.128 1 .085.299.207.552.364.76.157.208.348.368.572.48.224.112.477.168.76.168.283 0 .533-.059.752-.176.219-.117.421-.277.608-.48l.408.464c-.235.272-.497.48-.788.624-.29.144-.628.216-1.012.216zm4.8 0c-.368 0-.705-.07-1.012-.212a2.254 2.254 0 0 1-.792-.608 2.847 2.847 0 0 1-.516-.964 4.115 4.115 0 0 1-.184-1.272c0-.47.061-.89.184-1.264.123-.373.295-.69.516-.952.221-.261.485-.461.792-.6A2.428 2.428 0 0 1 7.816.024c.368 0 .705.07 1.012.208.307.139.57.339.792.6.221.261.393.579.516.952s.184.795.184 1.264c0 .47-.061.893-.184 1.272s-.295.7-.516.964a2.254 2.254 0 0 1-.792.608 2.389 2.389 0 0 1-1.012.212zm0-.648c.261 0 .5-.057.716-.172.216-.115.4-.276.552-.484.152-.208.27-.46.352-.756.083-.296.124-.628.124-.996s-.041-.699-.124-.992a2.288 2.288 0 0 0-.352-.748 1.556 1.556 0 0 0-.552-.472 1.562 1.562 0 0 0-.716-.164c-.267 0-.507.055-.72.164-.213.11-.396.267-.548.472-.152.205-.27.455-.352.748a3.658 3.658 0 0 0-.124.992c0 .368.041.7.124.996.083.296.2.548.352.756.152.208.335.37.548.484.213.115.453.172.72.172zm3.168-5.32h.768l.616 3.192.172.948.172.948h.032l.208-.948c.07-.312.141-.628.216-.948l.808-3.192h.672l.824 3.192c.075.315.145.63.212.944l.204.952h.04c.112-.64.224-1.272.336-1.896L16.88.136h.712L16.376 6h-.888L14.6 2.464a41.74 41.74 0 0 1-.148-.676l-.14-.66h-.032c-.048.224-.097.444-.148.66-.05.216-.1.441-.148.676L13.112 6h-.88L10.984.136zm9.792 5.968c-.368 0-.705-.07-1.012-.212a2.254 2.254 0 0 1-.792-.608 2.847 2.847 0 0 1-.516-.964 4.115 4.115 0 0 1-.184-1.272c0-.47.061-.89.184-1.264.123-.373.295-.69.516-.952.221-.261.485-.461.792-.6a2.428 2.428 0 0 1 1.012-.208c.368 0 .705.07 1.012.208.307.139.57.339.792.6.221.261.393.579.516.952s.184.795.184 1.264c0 .47-.061.893-.184 1.272s-.295.7-.516.964a2.254 2.254 0 0 1-.792.608 2.389 2.389 0 0 1-1.012.212zm0-.648c.261 0 .5-.057.716-.172.216-.115.4-.276.552-.484.152-.208.27-.46.352-.756.083-.296.124-.628.124-.996s-.041-.699-.124-.992a2.288 2.288 0 0 0-.352-.748 1.556 1.556 0 0 0-.552-.472 1.562 1.562 0 0 0-.716-.164c-.267 0-.507.055-.72.164-.213.11-.396.267-.548.472-.152.205-.27.455-.352.748a3.658 3.658 0 0 0-.124.992c0 .368.041.7.124.996.083.296.2.548.352.756.152.208.335.37.548.484.213.115.453.172.72.172zm4.512-2.544h.984c.464 0 .817-.092 1.06-.276.243-.184.364-.468.364-.852 0-.39-.121-.661-.364-.816-.243-.155-.596-.232-1.06-.232h-.984v2.176zM27.768 6l-1.424-2.488h-1.056V6h-.744V.136h1.84c.299 0 .573.028.824.084.25.056.467.15.648.28.181.13.323.301.424.512.101.21.152.468.152.772 0 .459-.121.824-.364 1.096-.243.272-.564.456-.964.552L28.608 6h-.84zM29.624.136h.744V3.08h.024L32.84.136h.832L31.84 2.368 33.96 6h-.832l-1.752-3.056-1.008 1.2V6h-.744V.136zm5.168 0h.744V6h-.744V.136zm2.344 0h.768l2.136 3.696.624 1.208h.04l-.064-.924a13.897 13.897 0 0 1-.032-.932V.136h.704V6h-.76l-2.136-3.704-.632-1.208h-.032c.016.299.035.601.056.908.021.307.032.615.032.924V6h-.704V.136zm8.08 5.968c-.384 0-.739-.068-1.064-.204a2.278 2.278 0 0 1-.836-.596 2.81 2.81 0 0 1-.544-.956 3.874 3.874 0 0 1-.196-1.276c0-.475.067-.9.2-1.276s.32-.696.56-.96c.24-.264.524-.465.852-.604a2.735 2.735 0 0 1 1.076-.208 2.307 2.307 0 0 1 1.024.228c.139.067.263.144.372.232.11.088.207.177.292.268l-.4.48a2.198 2.198 0 0 0-.52-.396c-.197-.11-.448-.164-.752-.164-.293 0-.56.055-.8.164-.24.11-.444.267-.612.472a2.239 2.239 0 0 0-.392.748c-.093.293-.14.624-.14.992s.043.701.128 1c.085.299.21.552.376.76.165.208.37.368.612.48.243.112.521.168.836.168.213 0 .415-.03.604-.092.19-.061.343-.145.46-.252V3.576h-1.24V2.96h1.92v2.464c-.187.197-.436.36-.748.488a2.794 2.794 0 0 1-1.068.192zm6.632 0a2.776 2.776 0 0 1-2.056-.872l.44-.504c.213.224.461.401.744.532.283.13.576.196.88.196.384 0 .685-.088.904-.264a.85.85 0 0 0 .328-.696.862.862 0 0 0-.076-.38.86.86 0 0 0-.208-.272 1.437 1.437 0 0 0-.308-.204c-.117-.059-.245-.12-.384-.184l-.848-.368a3.401 3.401 0 0 1-.416-.212 1.889 1.889 0 0 1-.384-.304 1.425 1.425 0 0 1-.284-.424 1.382 1.382 0 0 1-.108-.564c0-.224.047-.432.14-.624.093-.192.221-.357.384-.496A1.77 1.77 0 0 1 51.18.14c.227-.077.473-.116.74-.116a2.377 2.377 0 0 1 1.728.728l-.392.472a2.18 2.18 0 0 0-.6-.404 1.77 1.77 0 0 0-.736-.148c-.336 0-.603.077-.8.232a.76.76 0 0 0-.296.632c0 .144.03.267.088.368.059.101.133.19.224.264.09.075.195.139.312.192.117.053.232.104.344.152l.84.36c.17.075.33.157.476.248.147.09.275.197.384.32.11.123.195.265.256.428.061.163.092.353.092.572 0 .235-.047.452-.14.652-.093.2-.225.376-.396.528-.17.152-.38.27-.628.356a2.533 2.533 0 0 1-.828.128zM54.992.136h1.672c.33 0 .63.03.9.088.27.059.5.156.692.292.192.136.341.313.448.532.107.219.16.488.16.808 0 .31-.052.579-.156.808-.104.23-.252.419-.444.568-.192.15-.42.26-.684.332a3.325 3.325 0 0 1-.876.108h-.968V6h-.744V.136zm1.616 2.936c.517 0 .9-.097 1.148-.292.248-.195.372-.503.372-.924 0-.421-.13-.713-.388-.876-.259-.163-.647-.244-1.164-.244h-.84v2.336h.872zm5.496.544l-.28-.896a56.767 56.767 0 0 1-.592-1.984H61.2c-.09.347-.184.68-.28 1-.096.32-.197.648-.304.984l-.288.896h1.776zm.184.592h-2.144L59.576 6h-.752L60.816.136h.824L63.632 6h-.784l-.56-1.792zm4.384 1.896c-.363 0-.7-.068-1.012-.204a2.283 2.283 0 0 1-.812-.596 2.795 2.795 0 0 1-.536-.956 3.948 3.948 0 0 1-.192-1.276c0-.475.065-.9.196-1.276.13-.376.312-.696.544-.96.232-.264.507-.465.824-.604A2.559 2.559 0 0 1 66.72.024a2.07 2.07 0 0 1 .948.224 2.277 2.277 0 0 1 .66.504l-.4.48c-.155-.165-.33-.3-.524-.404a1.413 1.413 0 0 0-.676-.156c-.277 0-.53.055-.756.164-.227.11-.421.267-.584.472a2.216 2.216 0 0 0-.376.748 3.45 3.45 0 0 0-.132.992c0 .368.043.701.128 1 .085.299.207.552.364.76.157.208.348.368.572.48.224.112.477.168.76.168.283 0 .533-.059.752-.176.219-.117.421-.277.608-.48l.408.464c-.235.272-.497.48-.788.624-.29.144-.628.216-1.012.216zM69.56.136h3.384V.76h-2.64V2.6h2.224v.632h-2.224v2.136h2.728V6H69.56V.136z"/>
    </g>
</svg>
