<?xml version="1.0" encoding="utf-8"?>
<!-- Generator: Adobe Illustrator 24.0.1, SVG Export Plug-In . SVG Version: 6.00 Build 0)  -->
<svg version="1.1" id="레이어_1" xmlns="http://www.w3.org/2000/svg" xmlns:xlink="http://www.w3.org/1999/xlink" x="0px"
	 y="0px" viewBox="0 0 192 37" style="enable-background:new 0 0 192 37;" xml:space="preserve">
<style type="text/css">
	.st0{fill:#023B71;}
	.st1{fill:#E70112;}
</style>
<g>
	<path class="st0" d="M23.6,19.3l9.6-9.6c1.5-1.5,1.5-4.2,0-5.7c-1.5-1.5-4.2-1.5-5.7,0L3,28.5c-1.5,1.5-1.5,4.2,0,5.7
		c0.8,0.8,1.8,1.3,2.9,1.3c1,0,2.1-0.4,2.9-1.3L18,25l9.2,9.2c0.8,0.8,1.8,1.3,2.9,1.3c1,0,2.1-0.4,2.9-1.3c1.5-1.5,1.5-4.2,0-5.7
		L23.6,19.3L23.6,19.3z"/>
	<circle class="st1" cx="6.3" cy="7.2" r="5.4"/>
	<g>
		<path class="st0" d="M77,11.1h-5l-5.7,6.4v-6.4h-3.9v17.6h3.9v-6l0.8-1l5.3,7h4.9l-7.5-9.8L77,11.1z M93.7,11.1h3.8v17.6h-3.8
			L93.7,11.1z M120,11.1h-3.8v17.6h11.4v-3.5H120V11.1z M153,18.2l-1.7-0.4c-1.1-0.3-1.7-0.6-2-0.8c-0.3-0.3-0.4-0.4-0.4-0.8
			c0-0.6,0.1-0.8,0.6-1.3c0.4-0.4,1.1-0.6,2-0.6c0.8,0,1.4,0.1,2,0.6c0.4,0.3,0.7,0.7,0.8,1.3l0.1,0.7h3.8v-1
			c-0.1-1.5-0.8-2.8-2-3.8c-1.3-1-2.6-1.4-4.3-1.4c-1.8,0-3.5,0.4-4.6,1.4c-1.3,1-1.8,2.4-1.8,3.9c0,1.4,0.4,2.5,1.3,3.3
			c0.8,0.8,2,1.4,3.5,1.8l2.1,0.6c1.1,0.3,1.8,0.7,2,0.8c0.3,0.3,0.4,0.6,0.4,1c0,0.6-0.1,0.8-0.7,1.3c-0.6,0.4-1.3,0.6-2.1,0.6
			c-1,0-1.7-0.1-2.2-0.6c-0.5-0.3-0.8-0.8-0.8-1.4l-0.1-0.8h-3.8l0.1,1c0.1,1.7,0.8,2.9,2.1,3.9c1.3,1,2.8,1.4,4.6,1.4
			c1.9,0,3.6-0.6,4.9-1.5c1.3-1,2-2.4,2-4.2c0-1.4-0.4-2.5-1.4-3.5C156.1,19.1,154.8,18.6,153,18.2L153,18.2z M184.4,11.1h-3.2
			l-6.5,17.6h4l1.5-4.5h5c0.3,0.7,0.4,1.3,0.6,1.7c0.1,0.6,0.4,1.4,0.8,2.2l0.3,0.6h4C190.9,28.6,184.4,11.1,184.4,11.1z
			 M182.7,17.3c0-0.1,0-0.1,0.1-0.3l1.3,3.6h-2.5l0.4-1.3L182.7,17.3L182.7,17.3z"/>
	</g>
</g>
</svg>
