<svg xmlns="http://www.w3.org/2000/svg" width="534" height="768" viewBox="0 0 534 768">
    <g fill="none" fill-rule="evenodd">
        <path stroke="#979797" d="M51.8 1.175l142.168 25.128a30 30 0 0 1 22.97 19.281l49.429 135.806a30 30 0 0 1-5.202 29.534L168.41 321.557a30 30 0 0 1-28.21 10.268L-1.969 306.697a30 30 0 0 1-22.97-19.281L-74.367 151.61a30 30 0 0 1 5.202-29.534L23.59 11.443A30 30 0 0 1 51.8 1.175z"/>
        <path fill="#EEF0F0" d="M316.8 225.175l142.168 25.128a30 30 0 0 1 22.97 19.281l49.429 135.806a30 30 0 0 1-5.202 29.534L433.41 545.557a30 30 0 0 1-28.21 10.268l-142.168-25.128a30 30 0 0 1-22.97-19.281L190.633 375.61a30 30 0 0 1 5.202-29.534l92.755-110.633a30 30 0 0 1 28.21-10.268z"/>
        <path stroke="#E6E6E6" d="M-7.2 341.175l142.168 25.128a30 30 0 0 1 22.97 19.281l49.429 135.806a30 30 0 0 1-5.202 29.534L109.41 661.557a30 30 0 0 1-28.21 10.268l-142.168-25.128a30 30 0 0 1-22.97-19.281l-49.429-135.806a30 30 0 0 1 5.202-29.534l92.755-110.633A30 30 0 0 1-7.2 341.175z"/>
        <path fill="#E6E6E6" fill-opacity=".3" d="M113.288 611.955l65.446 11.691a15 15 0 0 1 11.457 9.636l22.873 62.843a15 15 0 0 1-2.583 14.746l-42.619 51.024a15 15 0 0 1-14.15 5.15l-65.446-11.691a15 15 0 0 1-11.457-9.636l-22.873-62.843a15 15 0 0 1 2.583-14.746l42.619-51.024a15 15 0 0 1 14.15-5.15z"/>
    </g>
</svg>
