<svg xmlns="http://www.w3.org/2000/svg" width="572" height="734" viewBox="0 0 572 734">
    <g fill="none" fill-rule="evenodd">
        <path stroke="#E6E6E6" d="M482.2 62.175L340.031 87.303a30 30 0 0 0-22.97 19.281L267.633 242.39a30 30 0 0 0 5.202 29.534l92.755 110.633a30 30 0 0 0 28.21 10.268l142.168-25.128a30 30 0 0 0 22.97-19.281l49.429-135.806a30 30 0 0 0-5.202-29.534L510.41 72.443a30 30 0 0 0-28.21-10.268z"/>
        <path fill="#EEF0F0" d="M217.2 286.175L75.031 311.303a30 30 0 0 0-22.97 19.281L2.633 466.39a30 30 0 0 0 5.202 29.534l92.755 110.633a30 30 0 0 0 28.21 10.268l142.168-25.128a30 30 0 0 0 22.97-19.281l49.429-135.806a30 30 0 0 0-5.202-29.534L245.41 296.443a30 30 0 0 0-28.21-10.268z"/>
        <path stroke="#979797" d="M541.2 402.175l-142.168 25.128a30 30 0 0 0-22.97 19.281L326.633 582.39a30 30 0 0 0 5.202 29.534l92.755 110.633a30 30 0 0 0 28.21 10.268l142.168-25.128a30 30 0 0 0 22.97-19.281l49.429-135.806a30 30 0 0 0-5.202-29.534L569.41 412.443a30 30 0 0 0-28.21-10.268z"/>
        <path fill="#E6E6E6" fill-opacity=".3" d="M344.712.955l-65.446 11.691a15 15 0 0 0-11.457 9.636l-22.873 62.843a15 15 0 0 0 2.583 14.746l42.619 51.024a15 15 0 0 0 14.15 5.15l65.446-11.691a15 15 0 0 0 11.457-9.636l22.873-62.843a15 15 0 0 0-2.583-14.746L358.862 6.105a15 15 0 0 0-14.15-5.15z"/>
    </g>
</svg>
