<svg xmlns="http://www.w3.org/2000/svg" xmlns:xlink="http://www.w3.org/1999/xlink" width="1920" height="747" viewBox="0 0 1920 747">
    <defs>
        <path id="a" d="M0 0h1920v747H0z"/>
    </defs>
    <g fill="none" fill-rule="evenodd">
        <mask id="b" fill="#fff">
            <use xlink:href="#a"/>
        </mask>
        <g stroke="#E6E6E6" stroke-linecap="square" mask="url(#b)">
            <path d="M49.5-56.295l-597.923 842.483M64.5-56.295l-597.923 842.483M79.5-56.295l-597.923 842.483M94.5-56.295l-597.923 842.483M109.5-56.295l-597.923 842.483M124.5-56.295l-597.923 842.483M139.5-56.295l-597.923 842.483M154.5-56.295l-597.923 842.483M169.5-56.295l-597.923 842.483M184.5-56.295l-597.923 842.483M199.5-56.295l-597.923 842.483M214.5-56.295l-597.923 842.483M229.5-56.295l-597.923 842.483M244.5-56.295l-597.923 842.483M259.5-56.295l-597.923 842.483M274.5-56.295l-597.923 842.483M289.5-56.295l-597.923 842.483M304.5-56.295l-597.923 842.483M319.5-56.295l-597.923 842.483M334.5-56.295l-597.923 842.483M349.5-56.295l-597.923 842.483M364.5-56.295l-597.923 842.483M379.5-56.295l-597.923 842.483M394.5-56.295l-597.923 842.483M409.5-56.295l-597.923 842.483M424.5-56.295l-597.923 842.483M439.5-56.295l-597.923 842.483M454.5-56.295l-597.923 842.483M469.5-56.295l-597.923 842.483M484.5-56.295l-597.923 842.483M499.5-56.295L-98.423 786.188M514.5-56.295L-83.423 786.188M529.5-56.295L-68.423 786.188M544.5-56.295L-53.423 786.188M559.5-56.295L-38.423 786.188M574.5-56.295L-23.423 786.188M589.5-56.295L-8.423 786.188M604.5-56.295L6.577 786.188M619.5-56.295L21.577 786.188M634.5-56.295L36.577 786.188M649.5-56.295L51.577 786.188M664.5-56.295L66.577 786.188M679.5-56.295L81.577 786.188M694.5-56.295L96.577 786.188M709.5-56.295L111.577 786.188M724.5-56.295L126.577 786.188M739.5-56.295L141.577 786.188M754.5-56.295L156.577 786.188M769.5-56.295L171.577 786.188M784.5-56.295L186.577 786.188M799.5-56.295L201.577 786.188M814.5-56.295L216.577 786.188M829.5-56.295L231.577 786.188M844.5-56.295L246.577 786.188M859.5-56.295L261.577 786.188M874.5-56.295L276.577 786.188M889.5-56.295L291.577 786.188M904.5-56.295L306.577 786.188M919.5-56.295L321.577 786.188M934.5-56.295L336.577 786.188M949.5-56.295L351.577 786.188M964.5-56.295L366.577 786.188M979.5-56.295L381.577 786.188M994.5-56.295L396.577 786.188M1009.5-56.295L411.577 786.188M1024.5-56.295L426.577 786.188M1039.5-56.295L441.577 786.188M1054.5-56.295L456.577 786.188M1069.5-56.295L471.577 786.188M1084.5-56.295L486.577 786.188M1099.5-56.295L501.577 786.188M1114.5-56.295L516.577 786.188M1129.5-56.295L531.577 786.188M1144.5-56.295L546.577 786.188M1159.5-56.295L561.577 786.188M1174.5-56.295L576.577 786.188M1189.5-56.295L591.577 786.188M1204.5-56.295L606.577 786.188M1219.5-56.295L621.577 786.188M1234.5-56.295L636.577 786.188M1249.5-56.295L651.577 786.188M1264.5-56.295L666.577 786.188M1279.5-56.295L681.577 786.188M1294.5-56.295L696.577 786.188M1309.5-56.295L711.577 786.188M1324.5-56.295L726.577 786.188M1339.5-56.295L741.577 786.188M1354.5-56.295L756.577 786.188M1369.5-56.295L771.577 786.188M1384.5-56.295L786.577 786.188M1399.5-56.295L801.577 786.188M1414.5-56.295L816.577 786.188M1429.5-56.295L831.577 786.188M1444.5-56.295L846.577 786.188M1459.5-56.295L861.577 786.188M1474.5-56.295L876.577 786.188M1489.5-56.295L891.577 786.188M1504.5-56.295L906.577 786.188M1519.5-56.295L921.577 786.188M1534.5-56.295L936.577 786.188M1549.5-56.295L951.577 786.188M1564.5-56.295L966.577 786.188M1579.5-56.295L981.577 786.188M1594.5-56.295L996.577 786.188M1609.5-56.295l-597.923 842.483M1624.5-56.295l-597.923 842.483M1639.5-56.295l-597.923 842.483M1654.5-56.295l-597.923 842.483M1669.5-56.295l-597.923 842.483M1684.5-56.295l-597.923 842.483M1699.5-56.295l-597.923 842.483M1714.5-56.295l-597.923 842.483M1729.5-56.295l-597.923 842.483M1744.5-56.295l-597.923 842.483M1759.5-56.295l-597.923 842.483M1774.5-56.295l-597.923 842.483M1789.5-56.295l-597.923 842.483M1804.5-56.295l-597.923 842.483M1819.5-56.295l-597.923 842.483M1834.5-56.295l-597.923 842.483M1849.5-56.295l-597.923 842.483M1864.5-56.295l-597.923 842.483M1879.5-56.295l-597.923 842.483M1894.5-56.295l-597.923 842.483M1909.5-56.295l-597.923 842.483M1924.5-56.295l-597.923 842.483M1939.5-56.295l-597.923 842.483M1954.5-56.295l-597.923 842.483M1969.5-56.295l-597.923 842.483M1984.5-56.295l-597.923 842.483M1999.5-56.295l-597.923 842.483M2014.5-56.295l-597.923 842.483M2029.5-56.295l-597.923 842.483M2044.5-56.295l-597.923 842.483M2059.5-56.295l-597.923 842.483M2074.5-56.295l-597.923 842.483M2089.5-56.295l-597.923 842.483M2104.5-56.295l-597.923 842.483M2119.5-56.295l-597.923 842.483M2134.5-56.295l-597.923 842.483M2149.5-56.295l-597.923 842.483M2164.5-56.295l-597.923 842.483M2179.5-56.295l-597.923 842.483M2194.5-56.295l-597.923 842.483M2209.5-56.295l-597.923 842.483M2224.5-56.295l-597.923 842.483M2239.5-56.295l-597.923 842.483M2254.5-56.295l-597.923 842.483M2269.5-56.295l-597.923 842.483M2284.5-56.295l-597.923 842.483M2299.5-56.295l-597.923 842.483M2314.5-56.295l-597.923 842.483M2329.5-56.295l-597.923 842.483M2344.5-56.295l-597.923 842.483M2359.5-56.295l-597.923 842.483M2374.5-56.295l-597.923 842.483M2389.5-56.295l-597.923 842.483M2404.5-56.295l-597.923 842.483M2419.5-56.295l-597.923 842.483M2434.5-56.295l-597.923 842.483M2449.5-56.295l-597.923 842.483M2464.5-56.295l-597.923 842.483M2479.5-56.295l-597.923 842.483"/>
        </g>
    </g>
</svg>
