<svg xmlns="http://www.w3.org/2000/svg" xmlns:xlink="http://www.w3.org/1999/xlink" width="360" height="747" viewBox="0 0 360 747">
    <defs>
        <path id="a" d="M0 0h360v747H0z"/>
    </defs>
    <g fill="none" fill-rule="evenodd">
        <mask id="b" fill="#fff">
            <use xlink:href="#a"/>
        </mask>
        <g stroke="#E6E6E6" stroke-linecap="square" mask="url(#b)">
            <path d="M121.5-56.295l-597.923 842.483M136.5-56.295l-597.923 842.483M151.5-56.295l-597.923 842.483M166.5-56.295l-597.923 842.483M181.5-56.295l-597.923 842.483M196.5-56.295l-597.923 842.483M211.5-56.295l-597.923 842.483M226.5-56.295l-597.923 842.483M241.5-56.295l-597.923 842.483M256.5-56.295l-597.923 842.483M271.5-56.295l-597.923 842.483M286.5-56.295l-597.923 842.483M301.5-56.295l-597.923 842.483M316.5-56.295l-597.923 842.483M331.5-56.295l-597.923 842.483M346.5-56.295l-597.923 842.483M361.5-56.295l-597.923 842.483M376.5-56.295l-597.923 842.483M391.5-56.295l-597.923 842.483M406.5-56.295l-597.923 842.483M421.5-56.295l-597.923 842.483M436.5-56.295l-597.923 842.483M451.5-56.295l-597.923 842.483M466.5-56.295l-597.923 842.483M481.5-56.295l-597.923 842.483M496.5-56.295l-597.923 842.483M511.5-56.295L-86.423 786.188M526.5-56.295L-71.423 786.188M541.5-56.295L-56.423 786.188M556.5-56.295L-41.423 786.188M571.5-56.295L-26.423 786.188M586.5-56.295L-11.423 786.188M601.5-56.295L3.577 786.188M616.5-56.295L18.577 786.188M631.5-56.295L33.577 786.188M646.5-56.295L48.577 786.188M661.5-56.295L63.577 786.188M676.5-56.295L78.577 786.188M691.5-56.295L93.577 786.188M706.5-56.295L108.577 786.188M721.5-56.295L123.577 786.188M736.5-56.295L138.577 786.188M751.5-56.295L153.577 786.188M766.5-56.295L168.577 786.188M781.5-56.295L183.577 786.188M796.5-56.295L198.577 786.188M811.5-56.295L213.577 786.188M826.5-56.295L228.577 786.188M841.5-56.295L243.577 786.188M856.5-56.295L258.577 786.188M871.5-56.295L273.577 786.188M886.5-56.295L288.577 786.188M901.5-56.295L303.577 786.188M916.5-56.295L318.577 786.188M931.5-56.295L333.577 786.188M946.5-56.295L348.577 786.188"/>
        </g>
    </g>
</svg>
