<svg xmlns="http://www.w3.org/2000/svg" xmlns:xlink="http://www.w3.org/1999/xlink" width="274" height="195" viewBox="0 0 274 195">
    <defs>
        <path id="a" d="M111.54 70l3.8-13.88-23.016-18.482c-2.53-2.032-1.205-6.133 2.03-6.28l29.42-1.348L134.14 2.285c1.14-3.047 5.427-3.047 6.566 0l10.366 27.727 29.421 1.346c3.234.149 4.558 4.249 2.03 6.28l-23.016 18.483 3.8 13.879H269a5 5 0 0 1 5 5v115a5 5 0 0 1-5 5H5a5 5 0 0 1-5-5V75a5 5 0 0 1 5-5h106.54z"/>
        <mask id="b" width="274" height="195" x="0" y="0" fill="#fff">
            <use xlink:href="#a"/>
        </mask>
    </defs>
    <g fill="none" fill-rule="evenodd">
        <use fill="#FFF" stroke="#E6E6E6" stroke-dasharray="3" stroke-width="2" mask="url(#b)" xlink:href="#a"/>
        <path fill="#FAED31" fill-rule="nonzero" d="M139.603 21.508l6.143 16.432 17.436.798c1.916.088 2.7 2.518 1.202 3.721l-13.64 10.954 4.634 16.923c.509 1.86-1.546 3.362-3.148 2.3l-14.573-9.661-14.572 9.66c-1.602 1.063-3.657-.439-3.147-2.299l4.633-16.924-13.64-10.953c-1.499-1.204-.714-3.634 1.203-3.721l17.436-.8 6.142-16.43c.675-1.805 3.216-1.805 3.89 0z"/>
    </g>
</svg>
