<?xml version="1.0" encoding="utf-8"?>
<!-- Generator: Adobe Illustrator 24.1.2, SVG Export Plug-In . SVG Version: 6.00 Build 0)  -->
<svg version="1.1" id="레이어_1" xmlns="http://www.w3.org/2000/svg" xmlns:xlink="http://www.w3.org/1999/xlink" x="0px"
	 y="0px" viewBox="0 0 399.35 280.1" style="enable-background:new 0 0 399.35 280.1;" xml:space="preserve">
<style type="text/css">
	.st0{fill:#FFFFFF;}
</style>
<path class="st0" d="M-0.64,142.2c0-1.2,0-2.4,0-3.6c0.06-0.3,0.16-0.61,0.17-0.91c0.09-2.8,0.13-5.59,0.25-8.39
	c0.4-9.54,0.77-19.08,1.25-28.61C1.7,87.4,2.8,74.14,4.68,60.97c1.17-8.16,2.92-16.18,5.98-23.87
	c4.15-10.43,10.79-18.69,20.89-23.92c7.32-3.8,15.18-5.92,23.29-6.99c6.69-0.88,13.42-1.52,20.15-1.97
	C86.94,3.4,98.9,2.73,110.87,2.15c7.9-0.38,15.81-0.54,23.72-0.74c8.39-0.2,16.78-0.36,25.17-0.48c8.91-0.14,17.83-0.21,26.74-0.33
	c1.62-0.02,3.25-0.15,4.87-0.23c5.36,0,10.72,0,16.08,0c0.38,0.06,0.77,0.17,1.15,0.17c10.75,0.17,21.5,0.3,32.25,0.49
	c11.39,0.21,22.78,0.43,34.16,0.73c7.87,0.2,15.74,0.39,23.6,0.86c12.8,0.75,25.6,1.61,38.38,2.63c7.33,0.59,14.56,1.96,21.58,4.27
	c8.52,2.8,16.04,7.14,21.83,14.14c4.56,5.51,7.51,11.84,9.66,18.6c3.31,10.42,4.7,21.19,5.73,32.02c0.69,7.2,1.32,14.41,1.75,21.62
	c0.63,10.89,1.06,21.79,1.58,32.68c0.11,2.3,0.21,4.6,0.32,6.91c0,3.2,0,6.4,0,9.6c-0.06,0.31-0.16,0.62-0.17,0.93
	c-0.09,2.68-0.14,5.35-0.25,8.03c-0.32,7.67-0.62,15.33-0.99,23c-0.68,13.93-1.76,27.84-3.66,41.66c-1.09,7.93-2.7,15.74-5.5,23.27
	c-3.16,8.48-7.79,15.92-15.09,21.48c-6.42,4.89-13.77,7.69-21.53,9.54c-7.76,1.85-15.65,2.73-23.6,3.2
	c-14.24,0.83-28.48,1.75-42.72,2.47c-8.38,0.42-16.78,0.55-25.17,0.74c-8.91,0.21-17.82,0.35-26.74,0.48
	c-9.08,0.13-18.15,0.21-27.23,0.33c-1.62,0.02-3.25,0.15-4.87,0.23c-1.68,0-3.36,0-5.04,0c-0.3-0.06-0.61-0.17-0.91-0.17
	c-5.6-0.09-11.19-0.16-16.79-0.25c-10.15-0.16-20.3-0.3-30.45-0.48c-7.31-0.13-14.62-0.28-21.93-0.48
	c-8.27-0.24-16.54-0.38-24.8-0.86c-13.84-0.81-27.67-1.74-41.49-2.87c-7.49-0.61-14.85-2.15-21.96-4.71
	c-6.78-2.45-12.9-5.94-17.95-11.16c-5.83-6.03-9.39-13.34-11.88-21.25c-3.56-11.32-4.86-23.03-5.95-34.77
	c-0.74-7.96-1.33-15.93-1.76-23.91c-0.58-10.77-0.93-21.55-1.39-32.33C-0.44,145.53-0.55,143.87-0.64,142.2z M159.69,200.33
	c34.77-20.08,69.35-40.07,104.09-60.13c-34.78-20.09-69.35-40.06-104.09-60.13C159.69,120.31,159.69,160.22,159.69,200.33z"/>
</svg>
