<svg xmlns="http://www.w3.org/2000/svg" width="32" height="30" viewBox="0 0 32 30">
    <g fill="#326474" fill-rule="nonzero">
        <path d="M5.034 13.86a.436.436 0 0 0 .063.63c.2.16.495.136.66-.053 1.6-1.838 4.045-2.779 6.542-2.516 4.117.432 7.13 3.984 6.717 7.917-.413 3.932-4.1 6.78-8.217 6.347-4.117-.433-7.13-3.984-6.717-7.917a6.85 6.85 0 0 1 .878-2.714.44.44 0 0 0-.186-.61.477.477 0 0 0-.636.172 7.708 7.708 0 0 0-.988 3.054c-.465 4.424 2.924 8.419 7.556 8.906 4.631.487 8.778-2.717 9.243-7.14.465-4.424-2.925-8.42-7.557-8.906-2.808-.295-5.559.762-7.358 2.83z"/>
        <path d="M18.774.565c-4.493.657-8.055 3.915-8.963 8.156-4.8.67-8.694 4.383-9.203 9.22-.603 5.74 3.783 10.921 9.778 11.552 5.621.59 10.692-3.028 11.798-8.214l.075-.011c2.161-.316 4.144-1.232 5.733-2.65a.435.435 0 0 0 .02-.632.481.481 0 0 0-.66-.025 10.001 10.001 0 0 1-5.015 2.385l.014-.12c.05-.482.065-.96.048-1.434 2.015-.423 3.771-1.53 4.978-3.146a7.755 7.755 0 0 0 1.514-3.838c.073-.692.052-1.4-.067-2.105-.358-2.13-1.559-4.005-3.381-5.282a8.689 8.689 0 0 0-6.267-1.477c-2.711.396-5.044 2.042-6.24 4.404a.443.443 0 0 0 .218.6c.232.11.511.019.623-.203 1.064-2.1 3.137-3.564 5.547-3.916a7.725 7.725 0 0 1 5.572 1.313c1.62 1.135 2.688 2.803 3.006 4.696a6.857 6.857 0 0 1-1.287 5.283c-1.045 1.401-2.556 2.371-4.291 2.767a10.202 10.202 0 0 0-1.265-3.75l1.17-1.542a.198.198 0 0 0 .038-.155.385.385 0 0 0-.168-.233c-.168-.117-.346-.12-.433-.006l-.98 1.293-.05-.035a10.71 10.71 0 0 0-.693-.917l.311-.41c.097-.127.023-.28-.1-.367a.368.368 0 0 0-.258-.071.22.22 0 0 0-.146.085l-.225.297c-.268-.282-.55-.55-.849-.804l.577-.76a.192.192 0 0 0 .04-.098c.01-.098-.054-.21-.178-.297-.133-.093-.322-.132-.423 0l-.552.728a11.225 11.225 0 0 0-5.566-2.17 11.435 11.435 0 0 0-1.783-.048c.924-3.741 4.122-6.592 8.133-7.178C24.363.655 29.503 4.255 30.38 9.475c.142.846.168 1.688.082 2.512-.184 1.749-.875 3.413-2.031 4.842a.436.436 0 0 0 .085.629.48.48 0 0 0 .655-.076 10.157 10.157 0 0 0 2.22-5.32c.094-.9.065-1.81-.089-2.721-.96-5.708-6.58-9.645-12.529-8.776zm2.647 19.564c-.551 5.249-5.46 9.05-10.942 8.474-5.482-.577-9.493-5.315-8.941-10.564.551-5.248 5.46-9.05 10.942-8.473 5.482.576 9.493 5.315 8.941 10.563z"/>
        <path d="M20.598 7.689l-1.236 1.62c-.097.129-.138.311.001.408l3.126 2.178c.098.068.267.059.406-.124l1.236-1.621a.194.194 0 0 0 .041-.1c.011-.105-.069-.215-.17-.285-.168-.117-.346-.12-.432-.006l-.979 1.283-.955-.666.523-.686a.205.205 0 0 0 .03-.203.352.352 0 0 0-.13-.162.37.37 0 0 0-.258-.07.22.22 0 0 0-.146.084l-.523.686-.95-.662.978-1.283c.086-.113.029-.275-.139-.392-.133-.092-.322-.132-.423 0zM23.593 5.647c-.762-.537-1.368-.218-1.822.384l-.686.91a.227.227 0 0 0 .046.328l3.114 2.194c.13.091.311-.013.422-.16.114-.151.159-.346.029-.437l-1.25-.881.29-.386 1.814.28c.13.02.242-.02.305-.103.131-.175.113-.49-.046-.602a.162.162 0 0 0-.093-.03l-1.619-.22c.15-.422.047-.888-.504-1.277zm-.255 1.488l-.382.505-1.02-.719.381-.505c.225-.3.505-.398.883-.13.379.266.363.55.138.849z"/>
    </g>
</svg>
