<svg xmlns="http://www.w3.org/2000/svg" width="93" height="71" viewBox="0 0 93 71">
    <path fill="#E6E6E6" fill-rule="evenodd" d="M87.9.7l4.8 6c-14 11.2-21 19.4-21 24.6 0 2.8 2.5 4.9 7.5 6.3 8.2 2.2 12.3 7.5 12.3 15.9 0 5-1.8 9.2-5.4 12.6-4.2 3.2-8.6 4.8-13.2 4.8-3.8 0-7.9-1.5-12.3-4.5C56.2 62 54 56.1 54 48.7c0-8.8 2.3-16.9 6.9-24.3 5.2-8.8 14.2-16.7 27-23.7zM34.2.7l4.5 6c-14 11.2-21 19.4-21 24.6 0 2.8 2.5 4.9 7.5 6.3 8.2 2.2 12.3 7.5 12.3 15.9 0 5-1.7 9.2-5.1 12.6-4.2 3.2-8.7 4.8-13.5 4.8-3.8 0-7.9-1.5-12.3-4.5C2.2 62 0 56.1 0 48.7c0-8.8 2.3-16.9 6.9-24.3C12.1 15.6 21.2 7.7 34.2.7z"/>
</svg>
