<svg xmlns="http://www.w3.org/2000/svg" width="117" height="98" viewBox="0 0 117 98">
    <g fill="none" fill-rule="evenodd" transform="translate(2 2)">
        <path fill="#ffc72c" fill-rule="nonzero" d="M18.05 68.249l-.633-7.03c-.08-.87.712-1.66 1.583-1.58l20.98 2.211c.79.08 1.345.79 1.266 1.58l-.475 4.819a1.11 1.11 0 0 1-1.108.948H19.079c-.475.079-.95-.316-1.029-.948zM49.954 68.249l-.633-7.03c-.08-.87.712-1.66 1.583-1.58l20.98 2.211c.791.08 1.345.79 1.266 1.58l-.475 4.819a1.11 1.11 0 0 1-1.108.948H50.983c-.475.079-.95-.316-1.029-.948z"/>
        <path stroke="#9B9B9B" stroke-width="3" d="M98.88 44.71H77.03c-.238 0-.476.157-.476.473 0 .316.238.474.475.474h.317l2.296 22.829c.079.474.475.869.95.869h14.725c.475 0 .87-.395.95-.87l2.296-22.828h.316c.238 0 .475-.237.475-.474s-.237-.474-.475-.474zM101.412 93.763H15.28c-6.65 0-12.033-5.371-12.033-12.007 0-6.635 5.383-12.006 12.033-12.006h86.133c6.65 0 12.034 5.371 12.034 12.006 0 6.715-5.383 12.007-12.034 12.007z"/>
        <g stroke="#9B9B9B" stroke-width="3">
            <path d="M23.75 87.997c-3.563 0-6.492-2.923-6.492-6.478 0-3.554 2.93-6.477 6.492-6.477 3.563 0 6.492 2.923 6.492 6.477 0 3.634-2.93 6.478-6.492 6.478zM46.788 87.997c-3.563 0-6.492-2.923-6.492-6.478 0-3.554 2.929-6.477 6.491-6.477 3.563 0 6.492 2.923 6.492 6.477 0 3.634-2.929 6.478-6.492 6.478zM69.904 87.997c-3.562 0-6.492-2.923-6.492-6.478 0-3.554 2.93-6.477 6.492-6.477 3.563 0 6.492 2.923 6.492 6.477 0 3.634-2.93 6.478-6.492 6.478zM93.02 87.997c-3.562 0-6.49-2.923-6.49-6.478 0-3.554 2.928-6.477 6.49-6.477 3.563 0 6.493 2.923 6.493 6.477-.08 3.634-2.93 6.478-6.492 6.478z"/>
        </g>
        <path stroke="#9B9B9B" stroke-linecap="round" stroke-linejoin="round" stroke-width="2.891" d="M0 3.16h33.567v7.188H0z"/>
        <path stroke="#9B9B9B" stroke-linecap="round" stroke-linejoin="round" stroke-width="2.891" d="M33.405 3.138v22.404h-7.188V3.138z"/>
        <ellipse cx="29.846" cy="7.267" fill="#FFF" fill-rule="nonzero" stroke="#9B9B9B" stroke-linecap="round" stroke-linejoin="round" stroke-width="2.891" rx="6.967" ry="6.951"/>
        <ellipse cx="29.846" cy="7.267" fill="#FFF" fill-rule="nonzero" stroke="#9B9B9B" stroke-linecap="round" stroke-linejoin="round" stroke-width="2.891" rx="2.85" ry="2.844"/>
        <path stroke="#9B9B9B" stroke-linecap="round" stroke-linejoin="round" stroke-width="3" d="M24.146 49.765L20.9 45.262v-7.188l7.046-4.66h3.72l6.967 4.581v7.504l-3.166 4.266"/>
        <path stroke="#9B9B9B" stroke-linecap="round" stroke-linejoin="round" stroke-width="2.891" d="M29.608 25.514v7.425"/>
    </g>
</svg>
