<svg xmlns="http://www.w3.org/2000/svg" width="35" height="35" viewBox="0 0 35 35">
    <g fill="#326474" fill-rule="nonzero">
        <path d="M18.507 6.683l11.544 2.454c.328.07.65-.136.719-.46a.604.604 0 0 0-.47-.713L18.757 5.511a.604.604 0 0 0-.72.46.604.604 0 0 0 .47.712zM15.986 6.148a.605.605 0 0 0 .451-.084.604.604 0 0 0 .26-.378.603.603 0 0 0-.461-.711.603.603 0 0 0-.711.462.601.601 0 0 0 .461.71z"/>
        <path d="M34.292 4.435L13.919.105a.605.605 0 0 0-.718.466l-2.543 11.964-.708-.15A9.196 9.196 0 0 0 .933 15.52a.606.606 0 0 0-.14.377L.612 27.469a1.82 1.82 0 0 0 1.439 1.806l25.796 5.483c.328.07.649-.14.719-.466l6.193-29.138a.605.605 0 0 0-.466-.719zM9.698 13.57l1.716.364a7.986 7.986 0 0 1 5.899 5.199c-.411.214-.809.454-1.19.717a5.835 5.835 0 0 1-4.4.806l-5.04-1.07a5.836 5.836 0 0 1-3.693-2.528 11.406 11.406 0 0 0-.794-1.139 7.986 7.986 0 0 1 7.502-2.35zm12.127 2.128a.604.604 0 0 0 .837.178l5.367-3.486.11.024c.327.07.536.391.467.718l-.434 2.042-10.575 6.867 1.005-2.358a.604.604 0 0 0 .026-.4 9.196 9.196 0 0 0-3.835-5.236l.783-3.685a.606.606 0 0 1 .719-.466l10.059 2.138-4.351 2.826a.605.605 0 0 0-.178.838zm-9.56 14.511l-.298-.063.64-3.011a10.279 10.279 0 0 1 4.173-6.267L15.8 23.17a.602.602 0 0 0-.2.467l-2.65 6.217a.607.607 0 0 1-.684.355zM4.322 20.206l-.08-.299a7.094 7.094 0 0 0 2.19.862l5.038 1.07c.785.168 1.578.2 2.352.104a11.482 11.482 0 0 0-2.4 4.938l-.64 3.012-6.998-1.488.64-3.01a11.479 11.479 0 0 0-.102-5.189zm23.494-3.358l-1.627 7.654a.606.606 0 0 1-.718.466l-7.654-1.627 9.999-6.493zM1.82 27.488l.155-9.768a10.28 10.28 0 0 1 1.264 7.423l-.64 3.01-.298-.063a.607.607 0 0 1-.48-.602zm25.685 5.96L13.94 30.564a1.81 1.81 0 0 0 .122-.236l2.56-6.003 8.597 1.828c.98.208 1.946-.42 2.154-1.4l2.417-11.37a1.818 1.818 0 0 0-1.399-2.155L16.546 8.711a1.818 1.818 0 0 0-2.154 1.399l-.706 3.32a9.272 9.272 0 0 0-1.844-.64l2.417-11.375 19.189 4.08-5.942 27.953z"/>
        <path d="M25.675 29.744l-2.672-.568a.602.602 0 0 0-.716.46.602.602 0 0 0 .466.713l2.672.568a.602.602 0 0 0 .716-.461.602.602 0 0 0-.466-.712zM20.722 15.997a.601.601 0 0 0-.711.461.605.605 0 0 0 .083.451.604.604 0 0 0 .379.26.601.601 0 0 0 .627-.913.6.6 0 0 0-.378-.26z"/>
    </g>
</svg>
