<svg xmlns="http://www.w3.org/2000/svg" width="22" height="21" viewBox="0 0 22 21">
    <g fill="#FFF" fill-rule="nonzero">
        <ellipse cx="7.776" cy="18.253" rx="2.661" ry="2.717"/>
        <path d="M16.302 15.51c-1.477-.149-2.792.953-2.937 2.461-.146 1.508.934 2.85 2.41 3 .176.017.352.017.527 0 1.477-.15 2.556-1.492 2.41-3-.125-1.303-1.134-2.333-2.41-2.461zM21.779 5.169a.694.694 0 0 0-.594-.317L18.239 4.8c-6.249.021-4.747.043-11.315-.001l-2.196.053-.75-3.482A.778.778 0 0 0 3.23.764H.791a.791.791 0 1 0 0 1.583H2.61L5.012 13.61c.063.37.381.639.75.633h13.51a.779.779 0 0 0 .75-.606l1.912-7.809a.75.75 0 0 0-.155-.66z"/>
    </g>
</svg>
