<svg xmlns="http://www.w3.org/2000/svg" width="81" height="101" viewBox="0 0 81 101">
    <g fill="none" fill-rule="evenodd">
        <path fill="#ffc72c" fill-rule="nonzero" d="M8.77 29.222c-.902 0-1.64-.652-1.722-1.549L5.16 4.76C4.915 1.988 7.212-.295 9.919.031l62.844 6.686c2.38.245 4.103 2.365 3.856 4.811l-1.558 16.227c-.082.897-.82 1.549-1.723 1.549H8.77v-.082z"/>
        <path stroke="#9B9B9B" stroke-width="3" d="M77.527 15.048H3.473c-.818 0-1.473.658-1.473 1.482 0 .823.655 1.481 1.473 1.481H4.7l7.692 78.108A3.203 3.203 0 0 0 15.583 99h49.834a3.203 3.203 0 0 0 3.19-2.88L76.3 18.01h1.227c.818 0 1.473-.658 1.473-1.481 0-.824-.655-1.482-1.473-1.482z"/>
        <path fill="#9B9B9B" fill-rule="nonzero" d="M4.997 15.048l.146 2.376L2 17.248l.292-2.2zM78.138 15.048l.076 2.376-3.143-.176.154-2.2z"/>
        <path stroke="#9B9B9B" stroke-width="3" d="M8.286 51.213s12.5-6.649 28.207-2.104c15.708 4.545 25.658 6.144 37.007-.505"/>
    </g>
</svg>
