<svg xmlns="http://www.w3.org/2000/svg" width="21" height="23" viewBox="0 0 21 23">
    <path fill="#9B9B9B" fill-rule="nonzero" d="M10.583 0h-.166C4.674 0 0 4.64 0 10.342v.265c0 3.911 2.203 7.325 5.442 9.082-.067.365-.334.961-.701 1.458-.434.597-1.002 1.26-1.235 1.558-.268.266-.034.398.734.2.768-.2 2.37-.796 3.572-1.492.535-.299.868-.498 1.069-.597.5.066 1.001.133 1.536.133h.166c5.743 0 10.417-4.64 10.417-10.342v-.265C21 4.64 16.326 0 10.583 0zM5.008 10.143h2.237v2.188H5.008c-.367 0-.668-.1-.901-.299-.234-.199-.334-.464-.334-.795 0-.332.1-.597.367-.796.234-.199.534-.298.868-.298zm10.483.994c-.667.829-1.67 1.227-2.938 1.227h-1.502v-2.188h.835c.634 0 1.068-.166 1.402-.497.3-.299.467-.73.467-1.26-.033-.497-.2-.895-.534-1.16-.334-.298-.735-.43-1.202-.43h-1.602v8.186c0 .398-.1.73-.334 1.028-.234.265-.535.398-.935.398s-.701-.133-.935-.398c-.234-.265-.367-.597-.367-1.028v-8.85c0-.497.133-.862.4-1.16.268-.265.668-.398 1.169-.398h2.771c1.302 0 2.304.332 2.971.962.234.232.468.497.635.828.2.299.334.63.434.995.1.331.133.696.133 1.027.034 1.094-.267 2.022-.868 2.718z"/>
</svg>
