<svg xmlns="http://www.w3.org/2000/svg" width="19" height="29" viewBox="0 0 19 29">
    <g fill="#426329" fill-rule="nonzero">
        <path d="M18.14.583c.453.029.806.398.787.825-.018.427-.4.75-.854.722l-6.208-.39c-.453-.029-.806-.398-.788-.825.019-.427.401-.75.855-.722l6.207.39zM7.422 6.417c.138-.405.6-.62 1.032-.479.433.14.672.582.535.986l-7.135 21.02c-.138.404-.6.618-1.032.478-.433-.14-.672-.581-.535-.986l7.135-21.02zM9.33 2.137a.378.378 0 0 1-.105-.541.423.423 0 0 1 .571-.086l1.417.952a.378.378 0 0 1 .106.541.423.423 0 0 1-.572.086l-1.416-.952zM8.633 3.592c-.209-.089-.306-.319-.216-.514.089-.194.33-.28.539-.19l1.448.619c.209.09.305.32.216.514s-.33.28-.54.19l-1.447-.619zM8.224 5.235c-.226-.027-.39-.221-.368-.433.023-.213.224-.363.45-.336l1.536.184c.226.027.39.22.368.433-.023.212-.225.363-.45.336l-1.536-.184z"/>
    </g>
</svg>
