<svg xmlns="http://www.w3.org/2000/svg" width="22" height="34" viewBox="0 0 22 34">
    <g fill="none" fill-rule="evenodd" stroke="#426329" transform="translate(-4)">
        <path fill="#426329" fill-rule="nonzero" stroke-width=".3" d="M25.146 10.62l.312-1.467a.56.56 0 0 0 0-.074.334.334 0 0 0-.033-.212.461.461 0 0 0-.022-.067l-2.977-5.233a.5.5 0 0 0-.33-.24L11.336 1.04a.5.5 0 0 0-.4.086l-4.848 3.57a.427.427 0 0 0-.048.053.49.49 0 0 0-.074.08.508.508 0 0 0-.042.098.482.482 0 0 0-.03.068l-.311 1.467a.5.5 0 0 0-.593.385l-.52 2.445a.5.5 0 0 0 .385.593l.564.12-.924 20.846a.5.5 0 0 0 .396.511l10.76 2.287a.5.5 0 0 0 .568-.306l7.635-19.42.564.12a.5.5 0 0 0 .593-.384l.52-2.446a.5.5 0 0 0-.385-.593zM11.348 2.064l10.32 2.194 2.314 4.07L7.577 4.841l3.77-2.777zM6.769 5.692l17.607 3.742-.208.978L6.56 6.67l.208-.978zm8.675 26.89l-9.931-2.11.898-20.256 16.452 3.497-7.42 18.87zm8.693-19.62L5.552 9.012l.312-1.468 18.585 3.95-.312 1.468z"/>
        <circle cx="13" cy="19" r="4" stroke-width="1.2"/>
    </g>
</svg>
