<svg xmlns="http://www.w3.org/2000/svg" width="20" height="36" viewBox="0 0 20 36">
    <g fill="#326474" fill-rule="nonzero" stroke="#326474" stroke-width=".3">
        <path d="M17.023 19.912a.516.516 0 0 0-.604.41l-2.922 13.75-11.803-2.509 2.923-13.75a.516.516 0 0 0-.385-.62.516.516 0 0 0-.604.41L.596 31.868a.516.516 0 0 0 .385.62l12.791 2.718a.516.516 0 0 0 .604-.41l3.032-14.264a.516.516 0 0 0-.385-.62zM5.328 12.038a.516.516 0 0 0 .603-.409c.413-1.94 1.785-3.521 3.597-4.158l6.61 1.406c1.398 1.318 2.008 3.321 1.596 5.26a.516.516 0 0 0 .385.62.516.516 0 0 0 .604-.41c.5-2.356-.269-4.792-2.008-6.356a.49.49 0 0 0-.226-.116l-6.873-1.46a.49.49 0 0 0-.253.013c-2.226.722-3.92 2.634-4.42 4.99a.516.516 0 0 0 .385.62zM17.879 17.886l-13.686-2.91a.512.512 0 0 0-.6.403c-.06.28.112.554.385.612L17.663 18.9a.512.512 0 0 0 .601-.402.512.512 0 0 0-.385-.612zM4.409 13.963l13.685 2.909a.512.512 0 0 0 .601-.402.512.512 0 0 0-.385-.612l-13.686-2.91a.512.512 0 0 0-.6.403c-.06.28.112.554.385.612zM9.223 5.271l8.171 1.737A.518.518 0 0 0 18 6.595a.518.518 0 0 0-.384-.624l-.165-.035.639-3.007a.518.518 0 0 0-.384-.624L10.851.848a.518.518 0 0 0-.604.414l-.64 3.007-.164-.035a.518.518 0 0 0-.604.414.518.518 0 0 0 .384.623zm1.902-3.28l5.865 1.246-.529 2.489-5.865-1.247.53-2.489z"/>
    </g>
</svg>
