<svg xmlns="http://www.w3.org/2000/svg" width="29" height="36" viewBox="0 0 29 36">
    <g fill="none" fill-rule="evenodd">
        <path fill="#326474" fill-rule="nonzero" d="M27.09 4.319l-2.647-.563c-1.094-.233-2.18.494-2.418 1.62l-1.736 8.165a.687.687 0 0 1-.806.54l-7.94-1.688a.687.687 0 0 1-.518-.821l1.736-8.166c.24-1.125-.457-2.23-1.551-2.463L8.563.381C7.469.148 6.383.875 6.144 2L.359 29.218c-.24 1.125.456 2.23 1.55 2.463l18.528 3.938c1.094.233 2.18-.494 2.419-1.619l5.785-27.218c.24-1.125-.456-2.23-1.55-2.463zm-4.834 25.997l-3.309-.703a.686.686 0 0 0-.806.54.686.686 0 0 0 .517.821l3.309.703-.434 2.042a.687.687 0 0 1-.807.54L2.2 30.32a.687.687 0 0 1-.517-.82l.434-2.042 12.572 2.672a.686.686 0 0 0 .806-.54.686.686 0 0 0-.517-.82L2.405 26.096 7.467 2.281a.687.687 0 0 1 .807-.54l2.646.563a.687.687 0 0 1 .517.821l-1.735 8.166c-.24 1.125.457 2.23 1.551 2.463l7.94 1.688c1.095.232 2.18-.494 2.42-1.62l1.735-8.165a.687.687 0 0 1 .806-.54l2.647.563a.687.687 0 0 1 .517.82l-5.062 23.816z"/>
        <path stroke="#326474" stroke-linecap="round" stroke-width="1.2" d="M2.5 23.5l9 2"/>
    </g>
</svg>
