<svg xmlns="http://www.w3.org/2000/svg" width="91" height="70" viewBox="0 0 91 70">
    <path fill="#E6E6E6" fill-rule="evenodd" d="M17.7.9c4.4 0 8.6 1.7 12.6 5.1 4.2 4.2 6.3 9.5 6.3 15.9 0 7.2-2.3 14.8-6.9 22.8-4 7.8-12.3 16.2-24.9 25.2L.3 64.2c6.4-4.6 11.1-9 14.1-13.2 2.2-3 3.3-6.4 3.3-10.2 0-4-2.1-6.4-6.3-7.2C4 31 .3 26 .3 18.6c0-5.4 1.6-9.8 4.8-13.2C8.5 2.4 12.7.9 17.7.9zm54 0c4.4 0 8.6 1.7 12.6 5.1 4 4.2 6 9.5 6 15.9 0 7.2-2.2 14.8-6.6 22.8-4 7.8-12.3 16.2-24.9 25.2L54 64.2c6.4-4.6 11.2-9 14.4-13.2 2.2-3 3.3-6.4 3.3-10.2 0-4-2.1-6.4-6.3-7.2C57.8 31 54 26 54 18.6c0-5.4 1.7-9.8 5.1-13.2 3.4-3 7.6-4.5 12.6-4.5z"/>
</svg>
