<svg xmlns="http://www.w3.org/2000/svg" xmlns:xlink="http://www.w3.org/1999/xlink" viewBox="0 0 224.43 464.96"><defs><style>.cls-1{fill:#9a999a;}.cls-10,.cls-11,.cls-12,.cls-14,.cls-2,.cls-3,.cls-4,.cls-6,.cls-7,.cls-8,.cls-9{fill:none;stroke-miterlimit:10;}.cls-2{stroke:#88b6c7;}.cls-11,.cls-12,.cls-2,.cls-3,.cls-4{stroke-width:3.34px;}.cls-3{stroke:#da9ab2;}.cls-4{stroke:#f5b04f;}.cls-5{fill:#c1c0c0;}.cls-10,.cls-6,.cls-7,.cls-8,.cls-9{stroke:#8d8d8d;}.cls-6{stroke-width:1.06px;}.cls-10,.cls-7,.cls-8,.cls-9{stroke-linecap:round;}.cls-7{stroke-width:1.28px;stroke-dasharray:11.09 11.09;}.cls-8{stroke-width:1.26px;stroke-dasharray:10.4;}.cls-9{stroke-width:1.26px;stroke-dasharray:10.35;}.cls-10{stroke-width:1.27px;stroke-dasharray:10.42;}.cls-11{stroke:url(#무제_그라디언트_20);}.cls-12{stroke:url(#무제_그라디언트_22);}.cls-13{fill:#fff;}.cls-14{stroke:#9a999a;stroke-width:3px;}</style><linearGradient id="무제_그라디언트_20" x1="86.7" y1="144.37" x2="138.58" y2="144.37" gradientUnits="userSpaceOnUse"><stop offset="0" stop-color="#88b6c7"/><stop offset="1" stop-color="#da9ab2"/></linearGradient><linearGradient id="무제_그라디언트_22" x1="86.7" y1="319.31" x2="138.58" y2="319.31" gradientUnits="userSpaceOnUse"><stop offset="0" stop-color="#f5b04f"/><stop offset="1" stop-color="#da9ab2"/></linearGradient></defs><g id="레이어_2" data-name="레이어 2"><g id="레이어_3" data-name="레이어 3"><circle class="cls-1" cx="29.82" cy="381.41" r="6.74"/><circle class="cls-1" cx="29.82" cy="434.92" r="7.53"/><circle class="cls-2" cx="59.47" cy="58.67" r="57"/><circle class="cls-3" cx="165.76" cy="231.84" r="57"/><circle class="cls-4" cx="58.67" cy="406.29" r="57"/><circle class="cls-5" cx="56.44" cy="407.61" r="14.26"/><circle class="cls-6" cx="56.44" cy="407.61" r="20.34"/><circle class="cls-7" cx="56.44" cy="407.61" r="24.72"/><line class="cls-6" x1="41.26" y1="393.61" x2="33.9" y2="385.79"/><line class="cls-8" x1="71.47" y1="393.67" x2="78.73" y2="385.79"/><line class="cls-9" x1="71.08" y1="422.02" x2="77.84" y2="429.33"/><line class="cls-10" x1="41.84" y1="421.96" x2="34.79" y2="429.33"/><circle class="cls-1" cx="84.58" cy="379.71" r="9.04"/><circle class="cls-1" cx="84.76" cy="436.56" r="10.3"/><circle class="cls-1" cx="179.15" cy="209.28" r="8.36"/><path class="cls-1" d="M192.36,215.56s-6.28,8.39-13.84,4.65-22-15.52-35.88,2.76a3.9,3.9,0,0,0,.93,5.26c2.89,2.31,5.51-.56,5.51-.56s7.16-9.59,14.69-5.44l-8.18,14.93s-7.51,16-19.33,8.14a3.8,3.8,0,0,0-4.58,1.77,4.37,4.37,0,0,0,0,4.8s13.73,11.38,27.78-3.77c0,0,15.38,3.06,20.53,21.55a3.86,3.86,0,0,0,4.8,1.87,3.62,3.62,0,0,0,2.85-4s-3.81-18.49-18.92-24.41l7.52-14.88s15.77,4.33,23.83-9.66a3.79,3.79,0,0,0-2.11-5.06C194.35,211.71,192.36,215.56,192.36,215.56Z"/><line class="cls-11" x1="88.1" y1="106.21" x2="137.18" y2="182.53"/><line class="cls-12" x1="137.18" y1="281.15" x2="88.1" y2="357.47"/><path class="cls-1" d="M20.4,57.8v-26a2,2,0,0,1,.53-1.18A2.06,2.06,0,0,1,22.31,30H34.7c0,.16-.06.24-.15.32l-4.44,4.45a.51.51,0,0,1-.6.12,3.3,3.3,0,1,0-1.58,6.38A3.33,3.33,0,0,0,31.71,38a2.91,2.91,0,0,0-.21-1.1.62.62,0,0,1,.17-.75c1.8-1.78,3.58-3.57,5.37-5.36.17-.16.33-.32.49-.49A1.43,1.43,0,0,1,38,30h10.2a2.12,2.12,0,0,1,1.16.45,2.26,2.26,0,0,1,.78,1.82q0,11.6,0,23.19v2a1.09,1.09,0,0,1,0,.18c0,.11,0,.25-.11.3s-.24,0-.33-.13c-.46-.44-.9-.89-1.35-1.34l-2.91-2.91a.7.7,0,0,1-.2-.82,3.29,3.29,0,1,0-2,2.05.67.67,0,0,1,.8.18l4.17,4.18c.12.12.31.24.23.43s-.29.12-.45.12H22.63a2.24,2.24,0,0,1-1.81-.8A2.19,2.19,0,0,1,20.4,57.8Z"/><path class="cls-13" d="M42.09,34.56a3.41,3.41,0,0,1,.44,6.79,3.16,3.16,0,0,1-1.72-.23.29.29,0,0,0-.37.08Q36,45.63,31.61,50a.31.31,0,0,0-.06.4,3.41,3.41,0,0,1-4.15,4.5,3.4,3.4,0,1,1,2.27-6.41.25.25,0,0,0,.32-.07l8.87-8.87c.13-.12.11-.21,0-.35A3.39,3.39,0,0,1,42.09,34.56Z"/><path class="cls-1" d="M42.07,52.81a1.17,1.17,0,0,1-1.14-1.15,1.14,1.14,0,0,1,1.13-1.14,1.15,1.15,0,1,1,0,2.29Z"/><path class="cls-1" d="M27.24,38a1.14,1.14,0,0,1,1.14-1.13A1.16,1.16,0,0,1,29.53,38a1.18,1.18,0,0,1-1.17,1.16A1.16,1.16,0,0,1,27.24,38Z"/><path class="cls-1" d="M42.06,36.83A1.15,1.15,0,1,1,40.93,38,1.15,1.15,0,0,1,42.06,36.83Z"/><path class="cls-1" d="M28.38,52.81a1.15,1.15,0,1,1,1.15-1.14A1.17,1.17,0,0,1,28.38,52.81Z"/><path class="cls-1" d="M84,42.56a4.63,4.63,0,0,1-2.51-6l-4.8-2a3.34,3.34,0,0,0-4.36,1.81l-20,48.44a3.33,3.33,0,0,0,1.81,4.35l18.15,7.51a3.35,3.35,0,0,0,4.36-1.81l20-48.43A3.34,3.34,0,0,0,94.8,42l-4.81-2A4.62,4.62,0,0,1,84,42.56Z"/><polyline class="cls-14" points="46.53 80.45 49.77 81.79 50.58 79.84 48.97 83.74"/><polyline class="cls-14" points="49.84 72.44 53.08 73.78 53.89 71.84 52.28 75.73"/><polyline class="cls-14" points="53.16 64.43 56.4 65.77 57.2 63.83 55.59 67.72"/><polyline class="cls-14" points="56.47 56.43 59.71 57.77 60.51 55.82 58.9 59.71"/><polyline class="cls-14" points="59.78 48.42 63.02 49.76 63.82 47.81 62.21 51.7"/><polyline class="cls-14" points="63.09 40.41 66.33 41.75 67.14 39.8 65.53 43.7"/><polyline class="cls-14" points="83.69 95.81 80.45 94.47 81.25 92.53 79.64 96.42"/><polyline class="cls-14" points="87 87.81 83.76 86.47 84.56 84.52 82.95 88.41"/><polyline class="cls-14" points="90.31 79.8 87.07 78.46 87.87 76.51 86.27 80.41"/><polyline class="cls-14" points="93.62 71.79 90.38 70.45 91.19 68.5 89.58 72.4"/><polyline class="cls-14" points="96.93 63.78 93.69 62.44 94.5 60.5 92.89 64.39"/><polyline class="cls-14" points="100.24 55.77 97 54.44 97.81 52.49 96.2 56.38"/><circle class="cls-13" cx="75.11" cy="38.13" r="1.25"/></g></g></svg>