<svg xmlns="http://www.w3.org/2000/svg" viewBox="0 0 500 112.17"><defs><style>.cls-1{fill:#f3cf1b;}.cls-2{fill:#fff;}</style></defs><g id="레이어_2" data-name="레이어 2"><g id="레이어_3" data-name="레이어 3"><path class="cls-1" d="M81.09,32.6A28.82,28.82,0,0,0,52.3,3.82H0V92.56H19.73V61.41H46l38.74,45L98.49,93.84,67,57.26A28.72,28.72,0,0,0,81.09,32.6ZM19.73,21.44H50.18a11.17,11.17,0,1,1,0,22.34H19.73Z"/><path class="cls-1" d="M225.59,39.83a23.52,23.52,0,0,0,2.84-11A23.83,23.83,0,0,0,204.63,5H160.86V92.56h48.77a28.78,28.78,0,0,0,16-52.73Zm-45-17.21h21.93a6.18,6.18,0,1,1,0,12.36H180.59Zm26.92,52.31H180.59V52.6h26.92a11.17,11.17,0,1,1,0,22.33Z"/><path class="cls-1" d="M275.4,37.77a26.69,26.69,0,1,0,26.69,26.69A26.72,26.72,0,0,0,275.4,37.77Zm0,35.76a9.08,9.08,0,1,1,9.06-9.07A9.1,9.1,0,0,1,275.4,73.53Z"/><path class="cls-1" d="M123.17,37.26a26.69,26.69,0,1,0,26.69,26.67A26.71,26.71,0,0,0,123.17,37.26Zm0,35.75a9.07,9.07,0,1,1,9.07-9.08A9.08,9.08,0,0,1,123.17,73Z"/><polygon class="cls-2" points="369.83 20.28 369.83 2.64 280.02 2.64 280.02 20.28 315.06 20.28 315.06 90.45 334.8 90.45 334.8 20.28 369.83 20.28"/><path class="cls-2" d="M429.71,62.53a23.82,23.82,0,0,0-23.8-23.8H355.07V98.07h19V86.33h26.67l22.53,25.84,13.95-12.32L420.8,81A23.68,23.68,0,0,0,429.71,62.53Zm-55.6-6.18H404.5a6.18,6.18,0,1,1,0,12.36H374.11Z"/><polygon class="cls-2" points="500 13.16 487.54 0 455.98 32.26 423.73 0 410.56 13.16 446.11 48.72 446.11 90.45 465.86 90.45 465.86 47.3 500 13.16"/></g></g></svg>