<svg xmlns="http://www.w3.org/2000/svg" viewBox="0 0 530.97 187.82"><defs><style>.cls-1{fill:#cdcecd;}</style></defs><g id="레이어_2" data-name="레이어 2"><g id="레이어_3" data-name="레이어 3"><path class="cls-1" d="M510.48,182.88a14,14,0,0,1-10.05,4.94v-6.35a7.06,7.06,0,0,0,6.75-7.47H501.4V161.54h12.7v10.37A16.67,16.67,0,0,1,510.48,182.88Zm16.88,0a14,14,0,0,1-10.05,4.94v-6.35a7.08,7.08,0,0,0,6.75-7.47h-5.79V161.54H531v10.37A16.66,16.66,0,0,1,527.36,182.88Z"/><path class="cls-1" d="M0,15.91a16.67,16.67,0,0,1,3.62-11A14,14,0,0,1,13.66,0V6.35A7.37,7.37,0,0,0,8.72,8.68a7.37,7.37,0,0,0-1.81,5.14H12.7V26.28H0Zm16.88,0a16.66,16.66,0,0,1,3.61-11A14,14,0,0,1,30.54,0V6.35A7.34,7.34,0,0,0,25.6,8.68a7.37,7.37,0,0,0-1.81,5.14h5.79V26.28H16.88Z"/></g></g></svg>